<?xml version="1.0" encoding="UTF-8"?>
<svg width="20px" height="20px" viewBox="0 0 20 20" version="1.1" xmlns="http://www.w3.org/2000/svg" xmlns:xlink="http://www.w3.org/1999/xlink">
    <title>icon-20/instagram</title>
    <g id="icon-20/instagram" stroke="none" stroke-width="1" fill="none" fill-rule="evenodd">
        <path d="M11.0273728,0.000594079003 C12.8277673,0.00386219351 13.2085677,0.0182805091 14.1228017,0.0599993172 C15.1871851,0.108552161 15.9141208,0.277633567 16.5501944,0.52488386 C17.2077828,0.78043141 17.7654588,1.1224054 18.3214278,1.67840096 C18.8773572,2.23443623 19.2192904,2.79217858 19.4748473,3.4498453 C19.7220284,4.08599474 19.8910897,4.813017 19.9396367,5.87752717 C19.9813506,6.79187005 19.9957672,7.17271581 19.9990349,8.97334968 L19.9990349,11.0286862 C19.9957672,12.829295 19.9813506,13.2101408 19.9396367,14.1244837 C19.8910897,15.1889939 19.7220284,15.9160161 19.4748473,16.5521656 C19.2192904,17.2098323 18.8773572,17.7675746 18.3214278,18.3236099 C17.7654588,18.8796055 17.2077828,19.2215794 16.5501944,19.4771667 C15.9141208,19.7243773 15.1871851,19.8934587 14.1228017,19.9420115 C13.1323815,19.9872069 12.7680049,20.0003621 10.5465691,20.0020109 L9.45309158,20.0020109 C7.23162398,20.0003621 6.86724741,19.9872069 5.87682725,19.9420115 C4.81244384,19.8934587 4.08550816,19.7243773 3.44943448,19.4771667 C2.79184607,19.2215794 2.23417014,18.8796055 1.67820109,18.3236099 C1.12227174,17.7675746 0.780338472,17.2098323 0.524821354,16.5521656 C0.277600505,15.9160161 0.108539234,15.1889939 0.0599921722,14.1244837 C0.0182783322,13.2101408 0.00386173358,12.829295 0.000594008257,11.0286862 L0.000594008257,8.97334968 C0.00386173358,7.17271581 0.0182783322,6.79187005 0.0599921722,5.87752717 C0.108539234,4.813017 0.277600505,4.08599474 0.524821354,3.4498453 C0.780338472,2.79217858 1.12227174,2.23443623 1.67820109,1.67840096 C2.23417014,1.1224054 2.79184607,0.78043141 3.44943448,0.52488386 C4.08550816,0.277633567 4.81244384,0.108552161 5.87682725,0.0599993172 C6.79106124,0.0182805091 7.17186165,0.00386219351 8.97228109,0.000594079003 Z M10.2869815,1.80187101 L9.71268289,1.80187101 C9.62008989,1.80190041 9.53056865,1.80194521 9.44396209,1.80200682 L8.95804215,1.80258951 C7.74882281,1.80474136 7.20533083,1.81191773 6.68412459,1.82988512 L6.48846017,1.83713998 C6.32418249,1.84362599 6.15422663,1.85123621 5.95895633,1.8601466 C4.9839662,1.90461037 4.45447376,2.06753831 4.10210069,2.20450258 C3.63532645,2.38593062 3.30220549,2.60265178 2.95229351,2.95264513 C2.60234184,3.30259878 2.3856465,3.63575942 2.20424006,4.10258925 C2.06729209,4.45500429 1.90438356,4.98455979 1.85992509,5.95966604 C1.84745202,6.23307702 1.837527,6.45686577 1.8296672,6.68492066 L1.82342474,6.88269792 C1.81094644,7.31892543 1.80511526,7.82296957 1.80283855,8.73999873 L1.80202889,9.1938242 C1.80193225,9.27476814 1.80185384,9.35846999 1.80179223,9.44508686 L1.80179223,10.5569555 C1.80185384,10.6435711 1.80193225,10.7272718 1.80202889,10.8082145 L1.80283855,11.2620336 C1.80511526,12.1790501 1.81094644,12.683089 1.82342474,13.1193144 L1.8296672,13.3170909 C1.837527,13.5451451 1.84745202,13.7689338 1.85992509,14.0423448 C1.90438356,15.0174511 2.06729209,15.5470066 2.20424006,15.8994216 C2.3856465,16.3662514 2.60238154,16.6994121 2.95229351,17.0493657 C3.30220549,17.3993591 3.63532645,17.6160802 4.10210069,17.7975083 C4.45447376,17.9344726 4.9839662,18.0974005 5.95895633,18.1418643 C6.15420458,18.1507747 6.32413974,18.1583849 6.48839961,18.1648709 L6.68404412,18.1721257 C7.27034615,18.1923391 7.88489864,18.198895 9.44392246,18.200004 L10.5557386,18.200004 C12.1147432,18.198895 12.7293065,18.1923391 13.3156024,18.1721257 L13.5112442,18.1648709 C13.6755012,18.1583849 13.8454317,18.1507747 14.0406726,18.1418643 C15.0156627,18.0974005 15.5451552,17.9344726 15.8975282,17.7975083 C16.3643025,17.6160802 16.6974234,17.3993591 17.0473354,17.0493657 C17.3972871,16.6994121 17.6139824,16.3662514 17.7953889,15.8994216 C17.9323368,15.5470066 18.0952454,15.0174511 18.1397038,14.0423448 C18.1806868,13.1439944 18.1941612,12.7813616 18.1972541,11.0429264 L18.1979725,10.2882066 L18.1979725,10.2882066 L18.1980159,10.0010253 C18.1980159,9.90211987 18.1980019,9.8064437 18.1979725,9.71383967 L18.1972541,8.95910904 C18.1941612,7.22064922 18.1806868,6.85801642 18.1397038,5.95966604 C18.0952454,4.98455979 17.9323368,4.45500429 17.7953889,4.10258925 C17.6139824,3.63575942 17.3972871,3.30259878 17.0473354,2.95264513 C16.6974234,2.60265178 16.3643025,2.38593062 15.8975282,2.20450258 C15.5451552,2.06753831 15.0156627,1.90461037 14.0406726,1.8601466 C13.8454023,1.85123621 13.6754464,1.84362599 13.511169,1.83713998 L13.315505,1.82988512 C12.7943004,1.81191773 12.2508136,1.80474136 11.0416113,1.80258951 L10.5556983,1.80200682 C10.3824877,1.80188359 10.1976186,1.80182761 9.9998343,1.80182761 Z M9.9998343,4.86526192 C12.8358877,4.86526192 15.1349464,7.16459437 15.1349464,10.0010253 C15.1349464,12.8374165 12.8358877,15.1367489 9.9998343,15.1367489 C7.16374117,15.1367489 4.86468254,12.8374165 4.86468254,10.0010253 C4.86468254,7.16459437 7.16374117,4.86526192 9.9998343,4.86526192 Z M9.9998343,6.6672751 C8.15885669,6.6672751 6.66648112,8.15982841 6.66648112,10.0010253 C6.66648112,11.8421824 8.15885669,13.3347358 9.9998343,13.3347358 C11.8407722,13.3347358 13.3331478,11.8421824 13.3331478,10.0010253 C13.3331478,8.15982841 11.8407722,6.6672751 9.9998343,6.6672751 Z M15.3378278,3.46219194 C16.0005766,3.46219194 16.5378493,3.9995286 16.5378493,4.66235629 C16.5378493,5.32518399 16.0005766,5.86248095 15.3378278,5.86248095 C14.6751188,5.86248095 14.1378461,5.32518399 14.1378461,4.66235629 C14.1378461,3.9995286 14.6751188,3.46219194 15.3378278,3.46219194 Z" id="icon-20/ins" fill="#FFFFFF"></path>
    </g>
</svg>