<?xml version="1.0" encoding="UTF-8"?>
<svg width="20px" height="20px" viewBox="0 0 20 20" version="1.1" xmlns="http://www.w3.org/2000/svg" xmlns:xlink="http://www.w3.org/1999/xlink">
    <title>icon-20/opensea</title>
    <g id="icon-20/opensea" stroke="none" stroke-width="1" fill="none" fill-rule="evenodd">
        <path d="M10,0 C15.5236889,0 20,4.47746667 20,10 C20,15.5225333 15.5225333,20 10,20 C4.47746667,20 0,15.5225333 0,10 C0,4.47746667 4.47746667,0 10,0 Z M10.3130889,4 C10.0007556,4 9.748,4.25582222 9.748,4.57124444 L9.748,4.57124444 L9.748,5.22466667 L9.68944444,5.20822222 L9.5302,5.16302222 L9.38533333,5.12295556 C9.38431111,5.12295556 9.38326667,5.12193333 9.38122222,5.12193333 L9.38122222,5.12193333 L9.37813333,5.12193333 L8.2788,4.82397778 C8.23053333,4.81062222 8.18942222,4.86302222 8.21408889,4.9072 L8.21408889,4.9072 L8.38977778,5.23186667 C8.4062,5.27295556 8.42984444,5.31404444 8.4504,5.35822222 C8.47915556,5.41577778 8.50793333,5.47637778 8.53566667,5.537 C8.56031111,5.59042222 8.58497778,5.64282222 8.61375556,5.70035556 C8.67024444,5.82673333 8.73188889,5.96028889 8.79251111,6.10722222 C8.8336,6.20482222 8.87471111,6.30242222 8.91066667,6.40413333 C9.00928889,6.65995556 9.1028,6.93324444 9.18395556,7.21373333 C9.21273333,7.30311111 9.23326667,7.3884 9.25793333,7.47777778 L9.25793333,7.47777778 L9.26922222,7.52708889 C9.30211111,7.65757778 9.33086667,7.78702222 9.35142222,7.91751111 C9.36786667,8.00688889 9.38326667,8.09215556 9.39148889,8.17846667 C9.40382222,8.27606667 9.41615556,8.37366667 9.42026667,8.47126667 C9.42848889,8.56066667 9.4326,8.65415556 9.4326,8.74353333 C9.4326,8.97162222 9.41204444,9.19148889 9.36375556,9.39902222 C9.34731111,9.45964444 9.33086667,9.52437778 9.31033333,9.58602222 C9.28977778,9.65895556 9.26102222,9.73191111 9.23326667,9.80997778 C9.21684444,9.85417778 9.2004,9.89937778 9.17984444,9.94355556 C9.07813333,10.1880667 8.95175556,10.4315778 8.82128889,10.6596444 C8.63017778,10.9976667 8.43806667,11.2946 8.30346667,11.4856889 C8.28497778,11.5134222 8.26751111,11.5380889 8.25211111,11.5617111 C8.20997778,11.6213111 8.25313333,11.7055556 8.32606667,11.7055556 L8.32606667,11.7055556 L9.748,11.7055556 L9.748,12.8285111 L8.30964444,12.8285111 C7.92333333,12.8285111 7.5658,12.6096667 7.39317778,12.2593333 C7.3038,12.0836444 7.26886667,11.8904889 7.28942222,11.7014444 C7.29455556,11.6449333 7.25242222,11.5915111 7.19488889,11.5915111 L7.19488889,11.5915111 L4.2894,11.5915111 C4.24006667,11.5915111 4.2,11.6315778 4.2,11.6808889 L4.2,11.6808889 L4.2,11.7404889 C4.2,13.5939333 5.69693333,15.096 7.54422222,15.096 L7.54422222,15.096 L12.7562444,15.096 C14.0055778,15.096 14.5644889,13.6401556 15.296,12.622 C15.5826444,12.2233778 16.2720444,11.9069333 16.4734222,11.8206222 C16.5062889,11.8062444 16.5288889,11.7733556 16.5288889,11.7363778 L16.5288889,11.7363778 L16.5288889,11.0922 C16.5288889,11.0326 16.4713556,10.9894444 16.4148444,11.0058889 L16.4148444,11.0058889 L13.3726889,11.8853556 C13.3562667,11.8894667 13.3418667,11.8987111 13.3305778,11.9110444 C12.9966667,12.2798667 12.7141333,12.5244 12.6494,12.5809111 C12.4603556,12.7411778 12.2261111,12.8285111 11.9795333,12.8285111 L11.9795333,12.8285111 L10.8781556,12.8285111 L10.8781556,11.7055556 L11.7535111,11.7055556 C11.7761111,11.7055556 11.7976889,11.6973333 11.8141111,11.6829556 L11.8141111,11.6829556 L11.9271333,11.5791778 C11.9754222,11.535 12.0329556,11.4815778 12.1018,11.4127333 C12.1428889,11.3716444 12.1880889,11.3274667 12.2322667,11.2781556 L12.2990611,11.2088083 L12.3627556,11.1363778 C12.4316,11.0624 12.4973556,10.9853333 12.5661778,10.9041778 C12.6154889,10.8507556 12.6607111,10.7901333 12.7048889,10.7295111 C12.7542,10.6719778 12.8024889,10.6072667 12.8476889,10.5456222 C12.8805778,10.4973333 12.9175556,10.448 12.9535111,10.3956 C12.9864,10.3462889 13.0192667,10.2938889 13.047,10.2445778 C13.1333111,10.1110222 13.2062667,9.9682 13.2679111,9.8254 C13.2997556,9.75655556 13.3244,9.68362222 13.3490667,9.61375556 C13.3737333,9.5408 13.3942667,9.47197778 13.4096889,9.39902222 C13.4466667,9.22744444 13.4548889,9.05688889 13.4384444,8.88635556 C13.4343333,8.83293333 13.4302222,8.78053333 13.4179111,8.7312 L13.4179111,8.7312 C13.4138,8.68806667 13.4055778,8.64902222 13.3942667,8.61306667 C13.3572889,8.44662222 13.2997556,8.28017778 13.2268,8.11682222 C13.2021556,8.0562 13.1733778,7.99455556 13.1456444,7.93804444 C13.0798889,7.8158 13.0110444,7.69353333 12.9329778,7.57537778 C12.9052222,7.5312 12.8723556,7.486 12.8435778,7.44182222 C12.7829556,7.34831111 12.7131111,7.25893333 12.6483778,7.17264444 C12.5990667,7.10791111 12.5425556,7.04317778 12.4891333,6.97742222 C12.4357111,6.91268889 12.3833111,6.85104444 12.3298889,6.79044444 C12.1387778,6.57468889 11.9384444,6.37946667 11.7596667,6.21304444 C11.7268,6.18015556 11.6908222,6.14728889 11.6538444,6.11542222 C11.5151333,5.98906667 11.3887778,5.87913333 11.2829556,5.79384444 C11.2295333,5.75275556 11.1853556,5.71268889 11.1442444,5.6798 C11.0918444,5.64077778 11.0507556,5.60891111 11.022,5.58733333 C11.0137778,5.58117778 11.0045333,5.57706667 10.9952667,5.57397778 L10.9952667,5.57397778 L10.8781556,5.54111111 L10.8781556,4.57124444 C10.8781556,4.41302222 10.8144444,4.27124444 10.7127333,4.16746667 C10.6110222,4.06368889 10.4692444,4 10.3130889,4 Z M7.73428889,6.20993333 C7.70553333,6.14522222 7.61613333,6.13904444 7.57813333,6.19864444 L7.57813333,6.19864444 L4.97673333,10.2682 L4.93357778,10.336 C4.89557778,10.3945778 4.93768889,10.4726667 5.0096,10.4726667 L5.0096,10.4726667 L7.68497778,10.4726667 C7.71477778,10.4726667 7.74251111,10.4582667 7.75895556,10.4336222 C7.79388889,10.3802 7.82675556,10.3247111 7.85655556,10.2682 C8.08773333,9.87984444 8.2932,9.45962222 8.3682,9.14935556 C8.54388889,8.39524444 8.16888889,7.18393333 7.73428889,6.20993333 Z" id="形状结合" fill="#FFFFFF" fill-rule="nonzero"></path>
    </g>
</svg>