<?xml version="1.0" encoding="UTF-8"?>
<svg width="20px" height="20px" viewBox="0 0 20 20" version="1.1" xmlns="http://www.w3.org/2000/svg" xmlns:xlink="http://www.w3.org/1999/xlink">
    <title>icon-20/twitter</title>
    <g id="icon-20/twitter" stroke="none" stroke-width="1" fill="none" fill-rule="evenodd">
        <path d="M10,0 C15.5228299,0 20,4.47717007 20,10 C20,15.5228299 15.5228299,20 10,20 C4.47717007,20 0,15.5228299 0,10 C0,4.47717007 4.47717007,0 10,0 Z M12.3775565,6.39030204 C11.2443864,6.39030204 10.3256381,7.30915918 10.3256381,8.44189388 C10.3256381,8.60287347 10.3435973,8.75939048 10.3787537,8.9097034 C8.67371973,8.82393469 7.16166531,8.00749932 6.14996463,6.76613878 C5.97352925,7.06926803 5.87208707,7.42148571 5.87208707,7.79721361 C5.87208707,8.50905034 6.23431837,9.13740408 6.78506667,9.50507755 C6.44852245,9.49473741 6.13233197,9.40222041 5.85576054,9.24842449 L5.85532517,9.27454694 L5.85532517,9.27454694 C5.85532517,10.2682884 6.56269932,11.097785 7.50136599,11.2859755 C7.32906667,11.3327782 7.14773333,11.3580299 6.96052245,11.3580299 C6.82838639,11.3580299 6.69973333,11.3450776 6.5748898,11.321132 C6.83600544,12.1362612 7.59333878,12.7293497 8.4914068,12.7461116 C7.7891483,13.2964245 6.90457687,13.6242612 5.94327075,13.6242612 C5.77771973,13.6242612 5.61445442,13.6149007 5.4539102,13.5958531 C6.36188299,14.1778395 7.43997823,14.5174313 8.59883537,14.5174313 C12.3725497,14.5174313 14.4362231,11.3910095 14.4362231,8.68004354 C14.4362231,8.59122721 14.4344816,8.50273741 14.4303456,8.41479184 C14.8309986,8.12515918 15.1791891,7.76390748 15.4539102,7.35247891 C15.0862367,7.51574422 14.6906993,7.62589388 14.2756789,7.67541769 C14.6991891,7.42148571 15.0244136,7.01963537 15.177883,6.54061497 C14.781366,6.77560816 14.3424,6.94649252 13.8751347,7.03857415 C13.5007129,6.63977143 12.9674884,6.39030204 12.3775565,6.39030204 Z" fill="#FFFFFF"></path>
    </g>
</svg>